<svg width="24" height="24" viewBox="0 0 24 24" fill="none" xmlns="http://www.w3.org/2000/svg">
<path fill-rule="evenodd" clip-rule="evenodd" d="M6.52786 1.09093C6.42075 1.14751 6.31594 1.25532 6.25833 1.36824C6.17006 1.54126 6.16411 1.64208 6.16486 2.94943C6.1658 4.55752 6.19687 4.78585 6.49852 5.40052C6.65184 5.71304 6.77587 5.8808 7.07358 6.17851C7.69181 6.79674 8.40234 7.0854 9.31059 7.08722L9.71494 7.08802L9.60052 7.40316C9.11728 8.73455 9.83226 10.1774 11.2276 10.6867L11.5781 10.8146L15.2344 10.8405C19.2988 10.8692 19.0652 10.8506 19.7578 11.1995C20.0055 11.3243 20.2134 11.4805 20.4617 11.7284C20.7738 12.0399 20.9252 12.2659 21.7854 13.7034C22.4066 14.7414 22.8029 15.3568 22.8848 15.4104C22.9553 15.4566 23.1085 15.5023 23.2252 15.5119C23.4919 15.5339 23.7643 15.3861 23.891 15.1505C23.9754 14.9936 23.9786 14.8462 23.9644 11.7755C23.95 8.67582 23.9461 8.55399 23.8521 8.25854C23.4647 7.04133 22.5494 6.12441 21.4219 5.82413C21.293 5.78977 21.1698 5.74604 21.1481 5.72687C21.1264 5.70769 21.0462 5.50604 20.9698 5.27874C20.5961 4.16668 19.7121 3.32663 18.5496 2.97877C18.3083 2.90658 17.8599 2.89562 14.1094 2.87012C9.96783 2.8419 9.93501 2.84096 9.59409 2.73713C8.73412 2.47533 8.02697 2.02097 7.56211 1.43162C7.22977 1.0103 6.89156 0.898928 6.52786 1.09093ZM8.19323 3.69301C8.36822 3.78301 8.69934 3.9196 8.92898 3.99652C9.7335 4.2661 9.89625 4.27496 14.0485 4.27524C16.6903 4.27543 17.9062 4.29155 18.0797 4.32868C18.885 4.50104 19.5323 5.14829 19.7047 5.9536C19.7339 6.09024 19.7578 6.27563 19.7578 6.36563C19.7578 6.74972 20.0961 7.08802 20.4802 7.08802C20.7334 7.08802 21.1147 7.18224 21.3984 7.3149C21.7352 7.47235 22.187 7.92549 22.3461 8.26529C22.5536 8.70844 22.5758 8.95566 22.5608 10.6589L22.5469 12.2375L22.2422 11.737C21.6545 10.7715 20.8166 10.0591 19.8633 9.7141C19.1002 9.43796 18.9994 9.43177 15.2769 9.43177C11.9703 9.43177 11.88 9.42938 11.6287 9.3354C11.3062 9.21474 10.986 8.8771 10.8988 8.56594C10.698 7.8488 11.2527 7.09862 11.9902 7.09008C12.2555 7.08699 12.5214 6.93132 12.6322 6.71424C12.7517 6.48005 12.7517 6.28983 12.6323 6.05588C12.4556 5.70938 12.4486 5.70816 10.5234 5.68177L8.8125 5.65833L8.55469 5.53529C8.17237 5.35276 7.92417 5.11266 7.74806 4.75505C7.60444 4.46335 7.59258 4.40293 7.57687 3.88196L7.55995 3.32227L7.7175 3.42582C7.80412 3.48272 8.0182 3.60296 8.19323 3.69301ZM1.16184 15.0623C0.684516 15.2114 0.337828 15.5162 0.121922 15.9765L0 16.2365V18.5109V20.7853L0.152812 21.0957C0.330609 21.4569 0.584766 21.7048 0.955312 21.8786L1.21875 22.0021L9.70434 22.0143L18.19 22.0265L18.4465 21.8663C19.47 21.2274 19.8736 21.0382 20.6504 20.8335C21.2617 20.6724 21.7584 20.6193 22.653 20.6193C23.5479 20.6193 23.7179 20.5676 23.8822 20.2455C23.9711 20.0711 23.9766 19.9715 23.9766 18.5099C23.9766 17.0483 23.9711 16.9487 23.8822 16.7743C23.7179 16.4522 23.5479 16.4005 22.653 16.4005C20.9016 16.4005 20.021 16.1396 18.4474 15.1544L18.1916 14.9943L9.7755 14.9974C2.95247 14.9999 1.32197 15.0122 1.16184 15.0623ZM11.2266 18.5099V20.6193H6.37833C2.03339 20.6193 1.5225 20.6116 1.45645 20.5456C1.39186 20.481 1.38281 20.2311 1.38281 18.5099C1.38281 16.7887 1.39186 16.5388 1.45645 16.4742C1.5225 16.4082 2.03339 16.4005 6.37833 16.4005H11.2266V18.5099ZM14.0391 18.5099V20.6193H13.3359H12.6328V18.5099V16.4005H13.3359H14.0391V18.5099ZM17.3203 18.5099V20.6193H16.3828H15.4453V18.5099V16.4005H16.3828H17.3203V18.5099ZM19.9627 17.4547C20.5964 17.648 21.2302 17.7562 21.9258 17.79L22.5703 17.8214V18.5099V19.1984L21.9258 19.2298C20.9307 19.2781 20.0275 19.4855 19.1446 19.8684L18.7266 20.0497V18.5099V16.9701L19.1446 17.1514C19.3746 17.2511 19.7427 17.3876 19.9627 17.4547Z" fill="#2B3F6C"/>
</svg>
