<svg width="24" height="24" viewBox="0 0 24 24" fill="none" xmlns="http://www.w3.org/2000/svg">
<path fill-rule="evenodd" clip-rule="evenodd" d="M22.9922 0.076988C22.9149 0.117254 22.3745 0.62491 21.7915 1.20513C20.8208 2.17108 20.723 2.25555 20.6317 2.20666C20.485 2.12814 13.9433 0.517566 13.6397 0.485175C13.3042 0.449457 12.8968 0.534254 12.5156 0.719082C12.236 0.854738 11.7309 1.34557 6.36279 6.69869C3.14627 9.90621 0.451899 12.6251 0.375305 12.7408C0.0656958 13.2082 -0.0633041 13.8367 0.0441334 14.354C0.174399 14.981 0.0378519 14.8303 4.62743 19.4134C7.52468 22.3066 8.94598 23.6943 9.08065 23.7613C9.70709 24.0732 10.3947 24.0717 11.0391 23.7572C11.2879 23.6358 11.9948 22.9445 17.1578 17.7748C20.3683 14.56 23.0653 11.8278 23.1509 11.7032C23.4064 11.3317 23.5025 11.0069 23.5001 10.5234C23.4982 10.1371 23.4284 9.82202 22.6706 6.78147C22.2155 4.95546 21.82 3.41805 21.7916 3.36503C21.745 3.27803 21.8435 3.1646 22.7951 2.20849C23.3754 1.62546 23.8839 1.08091 23.9251 0.99841C24.2119 0.424097 23.5607 -0.219075 22.9922 0.076988ZM16.4854 2.6013C18.1048 3.00077 19.4669 3.34352 19.5124 3.36302C19.5801 3.39199 19.4442 3.54897 18.7624 4.22946L17.9297 5.0605L17.6326 4.96774C16.414 4.58735 15.1572 5.38642 14.9432 6.67769C14.7199 8.02549 15.9787 9.27939 17.3303 9.05542C18.611 8.84322 19.4108 7.58003 19.0323 6.36742L18.9395 6.07028L19.7705 5.2376C20.4506 4.55627 20.608 4.41996 20.6368 4.4876C20.6562 4.53307 20.9999 5.89919 21.4005 7.52341C21.9818 9.88038 22.1229 10.5144 22.0992 10.664C22.0716 10.8384 21.6604 11.261 16.2496 16.677C11.5884 21.3426 10.3956 22.5127 10.2584 22.5541C9.83712 22.6814 10.1085 22.9222 5.61213 18.4305C1.21845 14.0414 1.35537 14.1929 1.42666 13.7974C1.45596 13.6347 2.02418 13.0518 7.25609 7.81699C10.4444 4.62686 13.1167 1.98536 13.1945 1.94693C13.2723 1.90853 13.3821 1.87661 13.4385 1.87605C13.4949 1.87544 14.866 2.20183 16.4854 2.6013ZM17.4293 6.40689C17.7255 6.62402 17.7997 7.09516 17.585 7.39657C17.4543 7.58018 17.126 7.70983 16.8995 7.66732C16.6844 7.62696 16.427 7.40017 16.3576 7.18989C16.2561 6.88221 16.409 6.5035 16.6932 6.35871C16.8942 6.25633 17.2562 6.28005 17.4293 6.40689ZM9.75237 7.88402C9.39152 7.92485 8.96374 8.12289 8.66121 8.38914C7.60507 9.31882 7.78526 11.0724 9.00987 11.7823C9.56056 12.1015 10.3634 12.1388 10.934 11.8716C11.9321 11.4043 12.41 10.2585 12.034 9.23435C11.6929 8.30519 10.7841 7.76739 9.75237 7.88402ZM10.4767 9.39414C10.8524 9.64033 10.8308 10.3055 10.4391 10.5515C10.2252 10.6859 9.8006 10.6573 9.62904 10.497C9.37198 10.2569 9.30518 9.9348 9.44937 9.63091C9.61957 9.27222 10.116 9.15785 10.4767 9.39414ZM10.3581 12.7479C7.89532 13.0247 5.83868 13.2737 5.78782 13.3012C5.73696 13.3287 5.63384 13.4159 5.55865 13.4949C5.3748 13.6881 5.33862 14.0583 5.48135 14.2855C5.61105 14.4921 5.84196 14.6246 6.07263 14.6248C6.27616 14.625 15.0468 13.6593 15.2218 13.6174C15.5267 13.5445 15.7944 13.1056 15.7255 12.7918C15.6589 12.4889 15.3124 12.2287 14.9898 12.2395C14.9052 12.2423 12.8209 12.4711 10.3581 12.7479ZM10.5011 14.8876C9.61249 15.1264 8.95315 15.9929 8.95315 16.9218C8.95315 18.2065 10.1364 19.2091 11.3974 18.9929C12.3099 18.8364 12.9938 18.1331 13.1377 17.2033C13.2034 16.7788 13.1364 16.4032 12.9146 15.9535C12.4833 15.0789 11.4642 14.6288 10.5011 14.8876ZM11.396 16.3152C11.595 16.4167 11.7626 16.6912 11.7646 16.9188C11.7666 17.1434 11.5854 17.4256 11.373 17.5284C11.1176 17.652 10.9439 17.6495 10.7158 17.5188C10.4696 17.3776 10.3482 17.1479 10.3725 16.8693C10.418 16.3463 10.9221 16.0734 11.396 16.3152Z" fill="#FE0A60"/>
</svg>
