<svg width="24" height="24" viewBox="0 0 24 24" fill="none" xmlns="http://www.w3.org/2000/svg">
<path fill-rule="evenodd" clip-rule="evenodd" d="M8.32035 0.0691128C8.08246 0.155035 7.80388 0.45016 7.73853 0.685519C7.71078 0.785503 7.68796 1.18896 7.68782 1.5821L7.68753 2.29694H7.51485C7.26486 2.29694 6.95961 2.46128 6.83385 2.66355C6.72936 2.8316 6.72622 2.87163 6.71235 4.2258L6.6981 5.6156L6.52775 5.64757C5.86522 5.77183 5.21389 6.44243 5.06174 7.15675C5.02963 7.3076 5.01786 9.89524 5.02635 14.9298L5.0391 22.4766L5.1395 22.7213C5.3586 23.255 5.82936 23.7126 6.34428 23.8923C6.57158 23.9716 6.90838 23.9766 12 23.9766C17.0917 23.9766 17.4285 23.9716 17.6558 23.8923C18.1707 23.7126 18.6415 23.255 18.8606 22.7213L18.961 22.4766L18.9737 14.9298C18.9822 9.89524 18.9704 7.3076 18.9383 7.15675C18.779 6.40891 18.1567 5.79161 17.4001 5.63093C17.2362 5.59614 16.403 5.57819 14.9509 5.57819H12.75L12.7498 4.30085C12.7496 3.59828 12.7288 2.94874 12.7033 2.85738C12.6185 2.55189 12.2669 2.29694 11.9306 2.29694H11.7734L11.7578 1.48478C11.7425 0.68866 11.7396 0.668738 11.6129 0.477347C11.5418 0.369957 11.3957 0.223941 11.2883 0.152832L11.0931 0.0235034L9.80047 0.0124409C8.76974 0.0036284 8.46988 0.0151128 8.32035 0.0691128ZM10.2657 1.8985V2.29694H9.7266H9.18753V1.8985V1.50007H9.7266H10.2657V1.8985ZM8.95316 4.68757V5.57819H8.57816H8.20316V4.68757V3.79694H8.57816H8.95316V4.68757ZM11.2393 4.69929L11.2521 5.57819H10.8526H10.4532V4.71883C10.4532 4.24614 10.468 3.84457 10.4862 3.82638C10.5044 3.80824 10.6784 3.79943 10.8729 3.80688L11.2266 3.82038L11.2393 4.69929ZM17.3476 7.25472L17.4844 7.40782V14.7946V22.1813L17.325 22.3407L17.1657 22.5001H12.6767H8.18764L8.85397 22.0286C9.2361 21.7583 9.55921 21.4934 9.61157 21.4075C9.70082 21.2612 9.70283 21.1161 9.70297 14.7843L9.70316 8.31082L9.59769 8.15505C9.53966 8.06941 9.20952 7.80288 8.86396 7.56283C8.51839 7.32274 8.22453 7.11518 8.21089 7.10158C8.1973 7.08794 10.2167 7.08236 12.6985 7.08921L17.2108 7.10163L17.3476 7.25472ZM7.40014 8.3658L8.20316 8.9268V14.7895V20.6522L7.35941 21.245L6.51566 21.8379V14.8057C6.51566 10.8423 6.53343 7.78033 6.55639 7.78914C6.5788 7.79772 6.95849 8.05722 7.40014 8.3658Z" fill="#2B3F6C"/>
</svg>
