<svg width="24" height="25" viewBox="0 0 24 25" fill="none" xmlns="http://www.w3.org/2000/svg">
<path fill-rule="evenodd" clip-rule="evenodd" d="M8.30864 2.09766L7.60945 4.19531L6.80475 4.20816C6.35824 4.21526 6 4.57924 6 5.0258V6.32925V7.73438C6 8.1227 6.3148 8.4375 6.70312 8.4375H7.40625V9.14062V9.84375H6.70312C6.3148 9.84375 6 10.1586 6 10.5469V17.4922V23.1406C6 23.6929 6.44772 24.1406 7 24.1406H10.9219H16.8438C17.396 24.1406 17.8438 23.6929 17.8438 23.1406V17.4922V10.5469C17.8438 10.1586 17.5289 9.84375 17.1406 9.84375H16.4375V9.14062V8.4375H17.1406C17.5289 8.4375 17.8438 8.1227 17.8438 7.73438V6.32925V5.0258C17.8438 4.57924 17.4855 4.21526 17.039 4.20816L16.2343 4.19531L15.5351 2.09766L15.0638 0.683786C14.9277 0.275437 14.5456 0 14.1152 0H10.9219H9.7286C9.29816 0 8.91602 0.275437 8.77991 0.683785L8.30864 2.09766ZM14.2659 2.74219C14.5068 3.46406 14.7157 4.09158 14.7301 4.13672C14.7548 4.21387 12.6479 4.21875 10.925 4.21875C9.91781 4.21875 9.09375 4.21308 9.09375 4.20609C9.09375 4.19273 9.9683 1.56558 10.0066 1.46381C10.0239 1.41783 10.2345 1.40714 10.9285 1.41694L13.828 1.42969L14.2659 2.74219ZM16.4375 6.32812V7.03125H10.9219H7.40625V6.32812V5.625H10.9219H16.4375V6.32812ZM15.0312 9.14062V9.84375H10.9219H8.8125V9.14062V8.4375H10.9219H15.0312V9.14062ZM16.4375 17.4922V22.7344H10.9219H7.40625V21.0312V20.3281H10.2188H14.0312C14.5835 20.3281 15.0312 19.8804 15.0312 19.3281V17.4922V14.6562C15.0312 14.104 14.5835 13.6562 14.0312 13.6562H10.2188H7.40625V11.9531V11.25H10.9219H16.4375V17.4922ZM13.625 17.4922V18.9219H9.51562H7.40625V17.4922V15.0625H9.51562H13.625V17.4922Z" fill="#2B3F6C"/>
</svg>
