<svg width="24" height="24" viewBox="0 0 24 24" fill="none" xmlns="http://www.w3.org/2000/svg">
<path fill-rule="evenodd" clip-rule="evenodd" d="M8.91229 2.11523C9.29568 3.27863 9.60937 4.23839 9.60937 4.24805C9.60937 4.2577 9.35624 4.26562 9.04687 4.26562C8.73621 4.26562 8.48437 4.51746 8.48437 4.82812V4.96875C8.48437 5.35708 8.79917 5.67188 9.18749 5.67188H9.89062H11.2969V6.43425V7.19662L11.0508 7.3117C10.7357 7.45898 10.272 7.92211 10.1253 8.23594L10.0113 8.47973L7.1736 8.49647C4.12429 8.51447 4.22413 8.50688 3.60937 8.76741C2.6083 9.19163 1.81415 10.1276 1.54265 11.2031C1.5058 11.349 1.47754 11.6951 1.47754 12C1.47754 12.3049 1.5058 12.651 1.54265 12.7969C1.81415 13.8724 2.6083 14.8084 3.60937 15.2326C4.20599 15.4854 4.19184 15.4841 6.4747 15.5034L8.61341 15.5215L8.70126 15.7178C8.74954 15.8257 8.8777 16.0232 8.98602 16.1567L9.18295 16.3994L8.85716 16.6626C8.0196 17.3393 7.40741 18.3746 7.16559 19.5234C7.07287 19.9639 7.08562 21.0455 7.18879 21.4876C7.39068 22.3531 7.79835 23.1623 8.34229 23.7773L-nan -nanL8.34229 23.7773C8.46751 23.9189 8.64744 24 8.83646 24H12H15.1635C15.3525 24 15.5325 23.9189 15.6577 23.7773L-nan -nanL15.6577 23.7773C16.2016 23.1623 16.6093 22.3531 16.8112 21.4876C16.9144 21.0455 16.9271 19.9639 16.8344 19.5234C16.5924 18.3736 15.9805 17.3394 15.141 16.6612L14.8135 16.3965L14.9717 16.2118C15.7068 15.353 15.6699 14.1169 14.8859 13.3329C14.4434 12.8904 13.9178 12.7031 13.1186 12.7031H12.7031V11.9408V11.1784L12.9492 11.0633C13.264 10.9161 13.7279 10.453 13.8744 10.1397L13.9881 9.89648L16.1229 9.87905C18.1334 9.86259 18.2756 9.85584 18.5625 9.76359C19.2523 9.54173 19.7054 9.26152 20.169 8.77008C20.5538 8.36208 20.7834 7.97245 20.9679 7.41389L21.1125 6.97627L21.3745 6.84398C21.9337 6.5617 22.3691 6.00056 22.4948 5.40005C22.5279 5.24231 22.5469 4.47652 22.5469 3.30239V2.15625C22.5469 1.76792 22.2321 1.45312 21.8437 1.45312H21.1406V0.726562V0.703125C21.1406 0.3148 20.8258 0 20.4375 0C20.0492 0 19.7344 0.3148 19.7344 0.703125V0.726562V1.45312H19.0312C18.643 1.45312 18.3282 1.76796 18.3283 2.15625L18.3287 3.33984C18.3292 5.34656 18.3411 5.47645 18.5654 5.92556C18.7262 6.2475 19.0868 6.6248 19.3801 6.77808C19.5233 6.85284 19.6404 6.93516 19.6405 6.96094C19.6407 7.08539 19.3496 7.59647 19.157 7.80975C18.9094 8.08392 18.4328 8.35355 18.0563 8.43234C17.8978 8.46553 17.1169 8.48438 15.8994 8.48438H13.9909L13.8758 8.23828C13.728 7.92225 13.2652 7.45945 12.9492 7.3117L12.7031 7.19662V6.43425V5.67188H14.1094H14.8125C15.2008 5.67188 15.5156 5.35708 15.5156 4.96875V4.82812C15.5156 4.51746 15.2638 4.26562 14.9531 4.26562C14.6437 4.26562 14.3906 4.2577 14.3906 4.24805C14.3906 4.23839 14.7043 3.27863 15.0877 2.11523L15.3521 1.31299C15.5653 0.666092 15.0834 0 14.4023 0H12H9.59766C8.91654 0 8.43472 0.666091 8.64791 1.31299L8.91229 2.11523ZM13.8083 1.48828C13.7939 1.53338 13.5862 2.17148 13.3467 2.90625L12.9111 4.24219H12H11.0888L10.6533 2.90625C10.4138 2.17148 10.206 1.53338 10.1917 1.48828C10.1671 1.41112 10.2742 1.40625 12 1.40625C13.7258 1.40625 13.8329 1.41112 13.8083 1.48828ZM21.1406 3.98625C21.1406 5.02312 21.1331 5.12789 21.0463 5.29809C20.9401 5.50608 20.6701 5.67188 20.4375 5.67188C20.2049 5.67188 19.9349 5.50608 19.8287 5.29809C19.7419 5.12789 19.7344 5.02312 19.7344 3.98625V2.85938H20.4375H21.1406V3.98625ZM12.3293 8.57873C12.5373 8.68486 12.7031 8.95491 12.7031 9.1875C12.7031 9.54417 12.3567 9.89062 12 9.89062C11.7674 9.89062 11.4974 9.72483 11.3912 9.51684C11.2717 9.28261 11.2717 9.09244 11.3911 8.85834C11.5644 8.51878 11.9731 8.397 12.3293 8.57873ZM10.1242 10.1367C10.2719 10.4528 10.7347 10.9155 11.0508 11.0633L11.2969 11.1784V11.9408V12.7031H10.8539C10.6102 12.7031 10.2991 12.7268 10.1624 12.7559C9.5788 12.8798 9.02216 13.2956 8.75924 13.804L8.60155 14.109L6.72121 14.1092C5.63746 14.1093 4.73404 14.0891 4.58863 14.0615C3.7176 13.8963 3.0441 13.1985 2.89659 12.3083C2.72066 11.2465 3.48721 10.1504 4.55193 9.94134C4.66518 9.91908 5.93934 9.89859 7.38346 9.89578L10.0091 9.89062L10.1242 10.1367ZM13.7356 14.2037C13.9436 14.3099 14.1094 14.5799 14.1094 14.8125C14.1094 15.0451 13.9436 15.3151 13.7356 15.4213C13.5612 15.5102 13.4616 15.5156 12 15.5156C10.5384 15.5156 10.4388 15.5102 10.2644 15.4213C10.0564 15.3151 9.89062 15.0451 9.89062 14.8125C9.89062 14.5871 10.0565 14.3105 10.2544 14.206C10.4185 14.1194 10.5292 14.1134 11.9901 14.1114C13.4639 14.1095 13.5609 14.1146 13.7356 14.2037ZM12.8672 17.0308C14.1036 17.3731 15.0702 18.34 15.4058 19.5703C15.6391 20.4256 15.451 21.5903 14.9526 22.3762L14.8146 22.5938H12H9.18543L9.04743 22.3762C8.43398 21.4089 8.32476 20.1226 8.7674 19.0781C9.19335 18.0729 10.1969 17.2264 11.2052 17.0216C11.3459 16.993 11.5031 16.9599 11.5547 16.948C11.7269 16.9081 12.6298 16.965 12.8672 17.0308Z" fill="#2B3F6C"/>
</svg>
