<svg width="24" height="24" viewBox="0 0 24 24" fill="none" xmlns="http://www.w3.org/2000/svg">
<path fill-rule="evenodd" clip-rule="evenodd" d="M4.26558 1.71314V3.42628L4.07644 4.04231C3.53686 5.79961 3.17729 7.63833 2.9694 9.70312C2.85493 10.8399 2.85493 13.1601 2.9694 14.2969C3.17729 16.3617 3.53686 18.2004 4.07644 19.9577L4.26558 20.5737V22.2869V23C4.26558 23.5523 4.7133 24 5.26558 24H12H18.7343C19.2866 24 19.7343 23.5523 19.7343 23V22.2869V20.5737L19.9235 19.9577C20.4582 18.2162 20.8227 16.3614 21.0313 14.3203C21.1446 13.2122 21.1446 10.7878 21.0313 9.67969C20.8227 7.63856 20.4582 5.78377 19.9235 4.04231L19.7343 3.42628V1.71314V0.999999C19.7343 0.447715 19.2866 0 18.7343 0H12H5.26558C4.7133 0 4.26558 0.447715 4.26558 1V1.71314ZM18.3281 2.13281V2.85938H12H5.67183V2.13281V1.40625H12H18.3281V2.13281ZM18.6648 4.73438C19.1224 6.29644 19.4793 8.20509 19.6465 9.98438C19.7232 10.8002 19.7232 13.1998 19.6465 14.0156C19.4782 15.807 19.1218 17.6999 18.6447 19.3359L18.5354 19.7109H12.0005H5.46554L5.33508 19.2656C4.87749 17.7036 4.52058 15.7949 4.35338 14.0156C4.27674 13.1998 4.27674 10.8002 4.35338 9.98438C4.48252 8.60995 4.73607 7.08262 5.03808 5.85938C5.19802 5.21166 5.43268 4.36383 5.46952 4.30064C5.48082 4.28119 8.42504 4.27064 12.0122 4.2772L18.5344 4.28906L18.6648 4.73438ZM7.20029 5.66372C7.03566 5.93011 6.63399 7.32173 6.4876 8.13281C6.36155 8.83125 6.37037 10.2227 6.50471 10.8313C6.88097 12.536 7.87608 13.7598 9.60507 14.6442C10.1799 14.9382 10.1353 14.8724 10.1962 15.5156C10.266 16.2519 10.5819 17.4804 10.8809 18.1778L10.9704 18.3869L11.2157 18.3553C11.6359 18.3011 12.5164 18.0925 13.0546 17.9195C14.3495 17.5035 15.3067 16.9432 16.1312 16.1187C17.0614 15.1886 17.5414 14.0194 17.6103 12.5156C17.6527 11.589 17.5104 10.5847 17.1785 9.468C16.9651 8.75025 16.8071 8.37066 16.7139 8.35177C16.5922 8.32711 15.4215 8.5673 14.9443 8.71481C14.4711 8.86116 13.8787 9.08902 13.5941 9.23419L13.4153 9.32541L13.1677 8.90353C12.4279 7.6432 11.1447 6.69323 9.40243 6.11606C8.46216 5.80458 7.26521 5.55872 7.20029 5.66372ZM8.86983 7.40794C9.96596 7.78097 10.791 8.25966 11.3966 8.87414C11.68 9.16172 11.8428 9.39094 12.0353 9.77344L12.1767 10.0547L11.6738 10.5496L11.1708 11.0445L10.431 9.76172C9.84891 8.75255 9.67505 8.48512 9.61561 8.50791C9.57408 8.52384 9.30136 8.67553 9.00961 8.84494C8.65201 9.05259 8.4871 9.17395 8.50369 9.21717C8.51724 9.25247 8.95196 10.014 9.46979 10.9095L10.4112 12.5378L10.3097 12.9486C10.2539 13.1745 10.1983 13.3594 10.1862 13.3594C10.1321 13.3594 9.5708 13.0071 9.33122 12.8227C8.95932 12.5365 8.52108 12.0551 8.31952 11.7112C7.7371 10.7174 7.63341 9.29616 8.02163 7.62891C8.10432 7.27383 8.13038 7.21875 8.21555 7.21875C8.26969 7.21875 8.56411 7.30387 8.86983 7.40794ZM15.957 10.2539C16.3236 11.77 16.2868 13.1421 15.8534 14.1219C15.6137 14.6636 15.0668 15.2812 14.4475 15.7093C14.1623 15.9065 13.28 16.3604 12.9715 16.4687C12.866 16.5058 12.7489 16.7209 14.2314 14.1538C14.9096 12.9795 15.477 11.9862 15.4921 11.9467C15.5127 11.8929 15.3715 11.7893 14.9365 11.5389C14.6157 11.3542 14.3434 11.2031 14.3313 11.2031C14.3192 11.2031 13.7212 12.2254 13.0023 13.4749C12.2834 14.7243 11.682 15.7474 11.6657 15.7483C11.601 15.752 11.5192 14.6387 11.5489 14.1593C11.5894 13.5073 11.7166 13.0125 11.9832 12.4705C12.1667 12.0975 12.2693 11.9592 12.628 11.6004C13.0869 11.1416 13.3665 10.9407 14.0368 10.5878C14.4339 10.3787 15.6283 9.93947 15.8035 9.93811C15.8599 9.93764 15.9009 10.0222 15.957 10.2539ZM18.3281 21.8672V22.5938H12H5.67183V21.8672V21.1406H12H18.3281V21.8672Z" fill="#2B3F6C"/>
</svg>
