<svg width="24" height="24" viewBox="0 0 24 24" fill="none" xmlns="http://www.w3.org/2000/svg">
<path fill-rule="evenodd" clip-rule="evenodd" d="M10.0776 0.0986309C9.86802 0.241272 9.75308 0.406412 9.71956 0.613131C9.69561 0.760693 9.73977 0.886928 10.026 1.48857C10.5324 2.55324 10.6977 3.08419 10.7244 3.73229C10.7374 4.04583 10.7234 4.37621 10.6902 4.54519C10.6284 4.85935 10.413 5.39471 10.3569 5.37371C10.3372 5.36635 9.93144 4.87337 9.45509 4.27819C8.97875 3.68302 8.531 3.15043 8.46008 3.0946C8.29034 2.9611 7.91347 2.95576 7.70342 3.08382C7.62195 3.13351 7.38284 3.37074 7.17214 3.61102C5.99956 4.9478 5.13659 6.37294 4.68898 7.71174C4.3722 8.65913 4.30601 9.0406 4.27958 10.0713C4.25455 11.0467 4.31642 11.7113 4.49689 12.4063C4.56158 12.6554 4.57095 12.754 4.53125 12.7672C4.50116 12.7772 3.72772 12.9341 2.81248 13.1158C1.67356 13.342 1.11144 13.4738 1.03123 13.5332C0.771265 13.726 0.763999 13.7621 0.396874 16.6886C0.204968 18.2182 0.0477962 19.5752 0.0476087 19.7041C0.0473743 19.8509 0.0798587 19.9921 0.134562 20.0817C0.304671 20.3607 3.05623 23.8096 3.16611 23.8816C3.43522 24.0579 3.54111 24.0349 5.24998 23.4282C6.13944 23.1124 6.90087 22.8451 6.94212 22.834C7.00386 22.8176 7.02195 22.8729 7.04511 23.149C7.07581 23.5154 7.16778 23.717 7.3745 23.8711L7.50687 23.9697H11.9765C16.4306 23.9697 16.4467 23.9694 16.5786 23.8722C16.7175 23.7698 16.8433 23.5538 16.9073 23.3079L16.9453 23.1617L17.4759 23.5525C17.7985 23.79 18.0714 23.9554 18.1718 23.9743C18.5608 24.0473 18.5125 24.0904 21.2378 21.2383C22.6354 19.7758 23.818 18.5158 23.8658 18.4385C23.985 18.2457 23.9791 17.9192 23.8528 17.7119C23.6849 17.4365 20.1508 12.4943 20.0224 12.3554C19.9564 12.2839 19.8223 12.2015 19.7246 12.1722C19.6268 12.1429 19.5469 12.0962 19.5469 12.0684C19.5469 12.0407 19.581 11.7856 19.6228 11.5017C19.7269 10.795 19.6891 9.22327 19.5522 8.55863C19.2498 7.08999 18.7726 5.93612 17.996 4.79522C16.4505 2.52469 14.0621 0.932865 10.9687 0.111615C10.4207 -0.0338847 10.2755 -0.035994 10.0776 0.0986309ZM12.3197 2.03874C15.5088 3.34571 17.6691 5.89716 18.1881 8.96972C18.2779 9.50091 18.288 9.69638 18.2675 10.4932C18.2453 11.3482 18.19 11.7659 18.0221 12.3458C17.9981 12.4285 17.8431 12.4722 16.7988 12.6902C16.1411 12.8275 15.5964 12.9325 15.5885 12.9235C15.5805 12.9146 15.5087 12.7573 15.4288 12.5741C14.9804 11.5447 14.1301 10.3771 13.0296 9.27985C12.4114 8.66344 12.2139 8.52441 11.9562 8.52441C11.6916 8.52441 11.5147 8.64558 10.99 9.18619C10.0361 10.169 9.34203 11.1229 8.83423 12.149L8.53676 12.7501L8.41991 12.5649C8.27201 12.3306 8.09525 12.1911 7.90011 12.1545C7.80481 12.1366 7.43131 12.1891 6.90875 12.294C6.44759 12.3865 6.04672 12.4622 6.01789 12.4621C5.95095 12.4619 5.83541 12.0467 5.74386 11.4775C5.64959 10.8916 5.6503 9.7523 5.74517 9.2041C5.91078 8.24776 6.44778 6.97337 7.08833 6.0166C7.56453 5.30537 8.01476 4.75482 8.0728 4.81285C8.09961 4.83966 8.52486 5.36279 9.0178 5.97535C9.51073 6.58791 9.9673 7.12782 10.0323 7.17516C10.2162 7.30899 10.473 7.3321 10.6898 7.23427C11 7.0944 11.5747 6.26016 11.8697 5.52146C12.2473 4.57594 12.2438 3.42662 11.8597 2.22966C11.7061 1.75107 11.6623 1.7693 12.3197 2.03874ZM12.4178 10.6689C13.1492 11.4566 13.8172 12.3982 14.1028 13.0441L14.2025 13.2694L14.0905 13.4025C14.0289 13.4757 13.7427 13.9795 13.4543 14.5222L12.93 15.5088L11.633 15.5086L10.3359 15.5083L9.96889 14.9415C9.6019 14.3748 9.60181 14.3746 9.6343 14.1331C9.74412 13.3163 10.3349 12.1423 11.1475 11.126C11.4958 10.6903 11.9218 10.212 11.9615 10.212C11.9791 10.2119 12.1844 10.4176 12.4178 10.6689ZM8.03258 14.5443C8.35841 15.0451 8.62498 15.4651 8.62498 15.4778C8.62498 15.4906 8.37331 15.508 8.06572 15.5166C7.44294 15.534 7.33048 15.5796 7.14842 15.8887C7.05814 16.0419 7.05416 16.1452 7.04112 18.6756L7.02758 21.3033L5.40697 21.8796C4.05983 22.3586 3.77642 22.4451 3.72776 22.3925C3.68497 22.3462 1.79689 19.9513 1.49741 19.5635C1.45948 19.5143 2.03755 14.7683 2.08766 14.7176C2.11522 14.6897 7.20837 13.6481 7.36461 13.6385C7.41341 13.6354 7.64984 13.9561 8.03258 14.5443ZM20.7422 15.7443C21.5672 16.9027 22.2688 17.8896 22.3013 17.9375C22.3547 18.0159 22.1562 18.2384 20.2922 20.1901L18.2238 22.3556L18.0767 22.2461C17.9959 22.1858 17.7037 21.9719 17.4275 21.7707L16.9255 21.4048L16.9119 18.7263C16.8989 16.1452 16.895 16.0421 16.8047 15.8887C16.6035 15.5471 16.5564 15.5339 15.4869 15.5178L14.5273 15.5034L14.7951 14.9975L15.063 14.4917L17.0589 14.0677C18.1565 13.8344 19.0969 13.6424 19.1484 13.6409C19.2197 13.6389 19.6022 14.1437 20.7422 15.7443ZM15.4687 19.751V22.5869H11.9765H8.48436V19.751V16.915H11.9765H15.4687V19.751Z" fill="#2B3F6C"/>
</svg>
