<svg width="24" height="24" viewBox="0 0 24 24" fill="none" xmlns="http://www.w3.org/2000/svg">
<path fill-rule="evenodd" clip-rule="evenodd" d="M8.28944 3.94428C8.5765 2.45661 9.66512 1.35598 11.1492 1.05307C11.382 1.00554 12.3161 0.995123 15.7366 1.00185C19.5596 1.0094 20.0397 1.0003 20.4716 1.13994C20.5664 1.17057 20.6588 1.20836 20.7837 1.25504C21.1382 1.38752 21.6582 1.73621 21.9678 2.04907C22.435 2.52108 22.7281 3.04179 22.925 3.74936C22.9938 3.99667 23 4.71897 23 12.4879C23 20.2569 22.9938 20.9792 22.925 21.2265C22.7926 21.7022 22.6628 22.0011 22.4428 22.3366C21.8964 23.1696 21.0598 23.733 20.1441 23.9074L19.266 23.9896H12.9482C12.9482 23.9896 12.0739 24.1022 10.8703 23.5864L10.4429 23.4033L10.1434 23.5376C9.25979 23.9336 8.26724 24.0731 7.40359 23.9227C6.1727 23.7082 4.80467 22.9722 3.74425 21.9538C2.90156 21.1445 2.32992 20.3622 1.75169 19.2268C0.74445 17.2491 0.213568 14.9962 0.0369494 11.95C0.00904522 11.4688 -0.0064148 10.8605 0.00254498 10.5982C0.0173023 10.1677 0.0309469 10.103 0.142505 9.93468C0.210465 9.83204 0.350688 9.69231 0.454077 9.62416L0.642086 9.50019L1.61176 9.50502C3.18131 9.51283 4.6867 9.67458 6.1795 9.99581C6.77802 10.1246 7.83442 10.4142 8.14714 10.5352C8.2216 10.564 8.22584 10.3975 8.22584 7.4198C8.22584 4.89348 8.23837 4.20902 8.28944 3.94428ZM16.1692 22.0727H20.0304C20.4836 21.9144 20.8097 21.6178 21.033 21.1663L21.201 20.8268V12.4879V4.14906L21.033 3.80958C20.8307 3.40064 20.5703 3.14592 20.1522 2.94808L19.8518 2.80586H15.6218H11.3919L11.052 2.97367C10.6427 3.17576 10.3877 3.43591 10.1896 3.85361L10.0473 4.15371L10.0352 8.71395C10.0285 11.2221 10.0285 13.7796 10.0352 14.3974L10.0473 15.5206L10.3396 15.2493C10.9941 14.6418 11.7804 14.1256 12.8357 13.6106C13.8547 13.1133 15.2534 12.5897 15.793 12.5034C16.0571 12.4612 16.3594 12.5686 16.5708 12.7799C16.7351 12.944 16.7721 13.023 16.9 13.4843C17.2355 14.6944 17.4346 15.9491 17.4762 17.1156C17.5472 19.1056 17.084 20.8208 16.1692 22.0727ZM7.57371 12.2514C6.3235 11.8149 4.9152 11.5225 3.43605 11.3926C3.01552 11.3556 2.4755 11.3147 2.23596 11.3016L1.80048 11.2777L1.8227 11.6919C1.9315 13.7205 2.24668 15.5238 2.74532 16.9706C3.64695 19.5866 5.18798 21.3325 7.20443 22.0226C7.55081 22.1412 7.68869 22.1649 8.04594 22.1672C8.51074 22.1702 8.90046 22.1202 8.90046 22.0575C8.90046 22.0467 8.88093 22.0058 8.8494 21.9482C8.81719 21.8894 8.77245 21.8133 8.7232 21.7346C8.48831 21.3591 8.295 20.8639 8.20034 20.3953C8.13952 20.0945 8.12927 19.8927 8.15203 19.4443L8.18087 18.875L7.80983 18.5943C7.60571 18.4399 7.20604 18.1115 6.92158 17.8647C6.28292 17.3104 4.35595 15.3813 4.18855 15.1286C4.02022 14.8745 4.01278 14.4375 4.17242 14.181C4.38406 13.8409 4.80429 13.6811 5.20402 13.7886C5.37089 13.8334 5.53823 13.9837 6.44038 14.8986C7.01422 15.4806 7.65092 16.1084 7.85524 16.2937L8.22672 16.6306L8.21504 14.551L8.20335 12.4714L7.57371 12.2514ZM14.1944 21.587C15.5962 20.3198 16.0337 17.8808 15.3937 14.9028C15.3377 14.6428 15.3005 14.555 15.2466 14.556C15.2069 14.5567 14.9417 14.6489 14.6572 14.7609C12.0074 15.8038 10.3689 17.3331 10.0059 19.1018C9.87389 19.7451 9.93022 20.1832 10.2139 20.7185C10.4543 21.1721 10.4554 21.1721 10.8295 20.7209C11.1805 20.2976 11.8273 19.3616 12.1341 18.833C12.3901 18.392 12.5857 18.2612 12.9899 18.2612C13.3441 18.2612 13.5631 18.3752 13.7495 18.6566C13.8496 18.8078 13.8702 18.8889 13.8702 19.1341C13.8702 19.4215 13.8611 19.4443 13.5345 19.9891C13.1726 20.5928 12.6272 21.3739 12.2669 21.8047C12.0015 22.122 12.0146 22.1421 12.5122 22.1787C13.153 22.2258 13.701 22.0331 14.1944 21.587Z" fill="#2B3F6C"/>
</svg>
