<svg width="24" height="24" viewBox="0 0 24 24" fill="none" xmlns="http://www.w3.org/2000/svg">
<path fill-rule="evenodd" clip-rule="evenodd" d="M7.86716 0.0407666C7.64314 0.108923 7.45874 0.227423 7.30602 0.401329C7.03597 0.708923 7.0236 0.778251 7.02472 1.97595C7.02589 3.22705 7.043 3.30088 7.41013 3.63795C7.64282 3.85161 7.86407 3.93383 8.20729 3.9342L8.42994 3.93449V7.34478V10.7551L8.11354 10.8648C6.38047 11.4658 4.69949 12.9542 3.85105 14.639C2.57741 17.1681 2.74354 20.2051 4.28075 22.4957C4.63129 23.018 5.16393 23.6511 5.41222 23.8405L5.58669 23.9735L10.6763 23.987C13.4756 23.9945 15.8379 23.9876 15.926 23.9718C16.1228 23.9363 16.5651 23.5257 16.9843 22.9892C18.7379 20.7448 19.1128 17.7272 17.9723 15.038C17.9481 14.9809 18.2088 14.7062 19.0175 13.9365L20.0951 12.911L21.299 12.3954C22.5609 11.855 22.6643 11.7894 22.7723 11.4621C22.888 11.1117 22.836 11.0377 21.3609 9.45233C19.679 7.64464 19.549 7.51803 19.3333 7.47758C19.0967 7.43319 18.8166 7.52136 18.6805 7.68308C18.6169 7.75869 18.3081 8.32255 17.9944 8.93609L17.424 10.0517L16.7825 10.6737C16.4296 11.0158 15.9899 11.4333 15.8054 11.6013L15.47 11.9068L15.0654 11.6432C14.6373 11.3641 13.7443 10.9212 13.4104 10.8224L13.2112 10.7634V7.34895V3.93449L13.4573 3.93402C13.9307 3.93313 14.3727 3.62427 14.5446 3.17417C14.6126 2.99619 14.6218 2.81277 14.609 1.89186L14.594 0.817298L14.4641 0.596235C14.3926 0.474642 14.2646 0.32211 14.1796 0.257329C13.8352 -0.00540532 13.8619 -0.00334281 10.8029 0.00101657C9.25288 0.00321969 7.93175 0.0211259 7.86716 0.0407666ZM13.201 1.97745L13.2141 2.52824H10.8221H8.42994V1.96531V1.40239L10.8088 1.41453L13.1878 1.42667L13.201 1.97745ZM11.7684 7.6962C11.7805 11.1631 11.7879 11.4696 11.8628 11.6066C11.9786 11.8183 12.1518 11.9247 12.5637 12.0372C13.2542 12.226 14.0627 12.6296 14.6583 13.0831C15.2301 13.5185 15.2768 13.5439 15.5015 13.5422C15.6211 13.5413 15.7717 13.5114 15.8362 13.4757C15.9006 13.4401 16.5281 12.866 17.2304 12.2L18.5075 10.9892L18.9179 10.2051C19.1437 9.77389 19.3426 9.42059 19.3601 9.41998C19.3776 9.41938 19.7315 9.7827 20.1466 10.2275L20.9014 11.036L20.7008 11.1197C20.5905 11.1657 20.2104 11.3344 19.8561 11.4947L19.2119 11.786L17.8468 13.0941C16.5197 14.3657 16.3518 14.559 16.3518 14.8159C16.3518 14.8726 16.4553 15.1422 16.5817 15.415C16.8303 15.9514 17.0186 16.5295 17.1021 17.0126C17.1311 17.1802 17.1621 17.3542 17.1708 17.3993C17.1856 17.4755 17.1119 17.4814 16.1429 17.4814H15.0991L15.0683 17.1807C15.0183 16.6927 14.8671 16.1746 14.64 15.7132C14.0814 14.5783 13.0973 13.778 11.8487 13.4428C11.2964 13.2947 10.3139 13.2949 9.76588 13.4433C8.42094 13.8075 7.32327 14.7821 6.83146 16.0486C6.67218 16.4588 6.55494 16.9782 6.55494 17.2735V17.4814H5.50025C4.76858 17.4814 4.44557 17.4657 4.44557 17.4301C4.44557 17.2661 4.65524 16.3948 4.77936 16.0429C5.31318 14.5297 6.42932 13.2536 7.86308 12.5172C8.12497 12.3826 8.59255 12.1894 8.90211 12.0877C9.21172 11.9861 9.5151 11.8701 9.57627 11.83C9.84388 11.6547 9.83619 11.7771 9.83619 7.68913V3.93449H10.7958H11.7554L11.7684 7.6962ZM10.1174 15.723V16.6365L9.0981 17.5254C7.92482 18.5486 8.01102 18.534 7.97375 17.7157C7.94652 17.1186 8.02124 16.785 8.3045 16.2392C8.52172 15.8206 8.93371 15.3716 9.2946 15.1601C9.50736 15.0354 10.0087 14.8129 10.0823 14.8106C10.1016 14.81 10.1174 15.2206 10.1174 15.723ZM12.0862 15.0324C12.5737 15.2608 13.1292 15.8183 13.3719 16.3228C13.6048 16.8072 13.6963 17.26 13.6625 17.7626C13.634 18.1867 13.5969 18.372 13.5405 18.372C13.5215 18.372 13.0599 17.987 12.5148 17.5165L11.5238 16.661L11.5237 15.7397L11.5237 14.8183L11.6292 14.843C11.6872 14.8566 11.8928 14.9418 12.0862 15.0324ZM10.1174 19.456V20.3525L9.97077 20.3231C9.62483 20.2539 8.8206 19.7535 8.86143 19.6328C8.87961 19.5791 10.0367 18.5636 10.0823 18.5613C10.1016 18.5603 10.1174 18.9629 10.1174 19.456ZM12.1651 19.0814C12.4955 19.3685 12.7724 19.62 12.7803 19.6404C12.8038 19.7006 12.3212 20.0413 11.9924 20.1967C11.4943 20.432 11.5237 20.4788 11.5237 19.4501C11.5237 18.9603 11.5328 18.5595 11.544 18.5595C11.5551 18.5595 11.8346 18.7944 12.1651 19.0814ZM6.85485 19.204C7.28099 20.249 8.2041 21.1592 9.2495 21.5651C9.77104 21.7676 10.2192 21.8514 10.7971 21.8544C12.4382 21.863 13.9251 20.9411 14.637 19.4735C14.7496 19.2415 14.854 19.0144 14.8691 18.9688C14.8943 18.8921 14.9813 18.8869 16.0333 18.8985L17.1703 18.911L17.1551 19.1216C17.1308 19.4572 16.9388 20.1493 16.7341 20.6394C16.5059 21.1854 16.1754 21.7388 15.7854 22.2275L15.4956 22.5907H10.816H6.13649L5.90089 22.3077C5.4186 21.7281 5.01355 21.019 4.75691 20.3048C4.6438 19.99 4.44557 19.1353 4.44557 18.9623C4.44557 18.896 4.57396 18.8876 5.58571 18.8876H6.7258L6.85485 19.204Z" fill="#2B3F6C"/>
</svg>
