<svg width="24" height="24" viewBox="0 0 24 24" fill="none" xmlns="http://www.w3.org/2000/svg">
<path fill-rule="evenodd" clip-rule="evenodd" d="M2.85932 0.761719L2.85918 1.52344L2.6001 1.65881C2.05724 1.94245 1.62079 2.54114 1.4991 3.16898C1.46263 3.35705 1.45035 3.79913 1.46319 4.45805C1.48471 5.56172 1.5209 5.7323 1.83341 6.20414L1.9776 6.42188L1.83341 6.63961C1.57246 7.03359 1.48461 7.33284 1.48461 7.82813C1.48461 8.32341 1.57246 8.62266 1.83341 9.01664L1.9776 9.23438L1.83341 9.45211C1.7541 9.57183 1.64179 9.78806 1.58385 9.93258C1.48227 10.1859 1.47791 10.259 1.46216 11.9766C1.45222 13.0606 1.46661 13.9956 1.49896 14.3653C2.00718 20.1737 7.16066 24.4843 12.961 23.9527C18.0264 23.4884 22.0573 19.4375 22.5011 14.3653C22.5335 13.9956 22.5478 13.0606 22.5379 11.9766C22.5222 10.259 22.5178 10.1859 22.4162 9.93258C22.3583 9.78806 22.246 9.57183 22.1667 9.45211L22.0225 9.23438L22.1667 9.01664C22.4276 8.62266 22.5155 8.32341 22.5155 7.82813C22.5155 7.33284 22.4276 7.03359 22.1667 6.63961L22.0225 6.42188L22.1667 6.20414C22.4792 5.7323 22.5154 5.56172 22.5369 4.45805C22.5589 3.32775 22.5229 3.04111 22.302 2.58923C22.1291 2.23556 21.7416 1.83731 21.3935 1.65544L21.1409 1.52344L21.1408 0.761719L21.1407 0H20.4375H19.7344L19.7343 0.761719L19.7342 1.52344L19.4751 1.65881C18.9322 1.94245 18.4958 2.54114 18.3741 3.16898C18.3376 3.35705 18.3253 3.79913 18.3382 4.45805C18.3597 5.56172 18.3959 5.7323 18.7084 6.20414L18.8526 6.42188L18.7084 6.63961C18.4475 7.03359 18.3596 7.33284 18.3596 7.82813C18.3596 8.32341 18.4475 8.62266 18.7084 9.01664L18.8526 9.23438L18.7084 9.45211C18.6291 9.57183 18.5174 9.78806 18.4603 9.93258C18.3606 10.1848 18.3551 10.2781 18.3246 12.2578C18.2961 14.1022 18.2826 14.3649 18.1961 14.7422C18.1429 14.9742 18.0687 15.2484 18.0311 15.3516L17.9628 15.5391L17.8839 15.3516C17.5128 14.4694 17.114 13.8716 16.4604 13.2179C15.5281 12.2855 14.5183 11.7444 13.1719 11.4558C12.6155 11.3365 11.3846 11.3365 10.8282 11.4558C9.47675 11.7455 8.47536 12.2821 7.53969 13.2179C6.88611 13.8716 6.48725 14.4694 6.11619 15.3516L6.0373 15.5391L5.96849 15.3516C5.93066 15.2484 5.85632 14.9637 5.80325 14.7188C5.71775 14.3239 5.70327 14.0424 5.67557 12.2344C5.64557 10.2758 5.64022 10.185 5.5401 9.93258C5.48277 9.78806 5.37097 9.57183 5.29166 9.45211L5.14747 9.23438L5.29166 9.01664C5.55261 8.62266 5.64046 8.32341 5.64046 7.82813C5.64046 7.33284 5.55261 7.03359 5.29166 6.63961L5.14747 6.42188L5.29166 6.20414C5.60418 5.7323 5.64036 5.56172 5.66188 4.45805C5.68391 3.32775 5.64791 3.04111 5.42699 2.58923C5.25407 2.23556 4.8666 1.83731 4.5185 1.65544L4.26589 1.52344L4.26575 0.761719L4.26566 0H3.56254H2.85941L2.85932 0.761719ZM3.9306 2.94089C4.23079 3.165 4.24096 3.2048 4.25666 4.21861C4.27002 5.08359 4.26421 5.16286 4.17397 5.33967C4.06513 5.55305 3.79785 5.71875 3.56254 5.71875C3.32994 5.71875 3.0599 5.55295 2.95377 5.34497C2.8693 5.17931 2.85941 5.06939 2.85941 4.29398C2.85941 3.7943 2.88055 3.37214 2.90943 3.29602C3.0696 2.8732 3.59516 2.69044 3.9306 2.94089ZM20.8056 2.94089C21.1058 3.165 21.116 3.2048 21.1317 4.21861C21.145 5.08359 21.1392 5.16286 21.049 5.33967C20.9401 5.55305 20.6728 5.71875 20.4375 5.71875C20.2049 5.71875 19.9349 5.55295 19.8288 5.34497C19.7443 5.17931 19.7344 5.06939 19.7344 4.29398C19.7344 3.7943 19.7556 3.37214 19.7844 3.29602C19.9446 2.8732 20.4702 2.69044 20.8056 2.94089ZM3.89188 7.21936C4.09986 7.32548 4.26566 7.59553 4.26566 7.82813C4.26566 8.1848 3.91921 8.53125 3.56254 8.53125C3.20586 8.53125 2.85941 8.1848 2.85941 7.82813C2.85941 7.6027 3.0253 7.32614 3.22321 7.22166C3.44938 7.10227 3.66093 7.10156 3.89188 7.21936ZM20.7669 7.21936C20.9749 7.32548 21.1407 7.59553 21.1407 7.82813C21.1407 8.1848 20.7942 8.53125 20.4375 8.53125C20.2049 8.53125 19.9349 8.36545 19.8288 8.15747C19.7093 7.92323 19.7092 7.73306 19.8287 7.49897C20.0019 7.15941 20.4106 7.03763 20.7669 7.21936ZM3.89188 10.0319C4.01099 10.0926 4.11055 10.1922 4.1713 10.3113C4.26046 10.4861 4.26566 10.5852 4.26566 12.1103C4.26566 14.2203 4.32974 14.8455 4.64497 15.8101C5.42699 18.2031 7.25005 20.0262 9.64302 20.8082C10.7357 21.1652 12.1179 21.2806 12.8672 21.0773C14.1177 20.7381 15.1082 19.7284 15.4261 18.4688C15.463 18.3229 15.4912 17.9768 15.4912 17.6719C15.4912 17.367 15.463 17.0208 15.4261 16.875C15.1025 15.5929 14.079 14.5695 12.7969 14.2458C12.4622 14.1613 11.5378 14.1613 11.2032 14.2458C10.1044 14.5231 9.17188 15.3273 8.75221 16.3594C8.54404 16.8713 8.51132 17.0551 8.5145 17.6953C8.51657 18.121 8.54024 18.3747 8.59297 18.5369C8.6345 18.6646 8.65968 18.7778 8.6489 18.7886C8.60216 18.8354 7.95463 18.3213 7.53294 17.9027L7.07371 17.4468L7.10474 17.196C7.3625 15.1145 8.70369 13.513 10.6641 12.9458C13.2491 12.1978 15.9711 13.72 16.7264 16.3359C17.4761 18.9326 15.9355 21.6728 13.3125 22.4082C12.3507 22.6778 11.0644 22.6353 9.70382 22.2887C6.54683 21.4845 3.96871 18.9063 3.16447 15.7493C2.91271 14.7609 2.89302 14.54 2.87165 12.4629C2.85196 10.5543 2.85369 10.5075 2.94974 10.3192C3.12707 9.97163 3.53183 9.8482 3.89188 10.0319ZM20.7669 10.0319C20.886 10.0926 20.9856 10.1922 21.0463 10.3113C21.1357 10.4865 21.1407 10.585 21.1407 12.1807C21.1407 13.1071 21.1185 14.0835 21.0914 14.3505C20.8561 16.6679 19.7567 18.7977 18.005 20.3297C17.7885 20.519 17.6026 20.665 17.5918 20.6543C17.581 20.6435 17.6443 20.49 17.7326 20.3134C18.0137 19.7508 18.2027 19.0717 18.2806 18.3438C18.324 17.9386 18.3418 17.8893 18.5934 17.4766C19.0922 16.6587 19.3912 15.8872 19.5987 14.8828C19.6971 14.4061 19.7065 14.2206 19.7235 12.4245C19.7405 10.6178 19.7481 10.4693 19.8324 10.3043C20.0018 9.97214 20.4142 9.85195 20.7669 10.0319ZM12.3801 15.6104C13.4807 15.819 14.2514 16.8986 14.0722 17.9802C13.9198 18.8998 13.2279 19.5916 12.3084 19.744C10.9529 19.9686 9.7033 18.719 9.92788 17.3635C10.1241 16.179 11.2258 15.3915 12.3801 15.6104Z" fill="#2B3F6C"/>
</svg>
