<svg width="151" height="24" viewBox="0 0 151 24" fill="none" xmlns="http://www.w3.org/2000/svg">
<path fill-rule="evenodd" clip-rule="evenodd" d="M137.234 0.044949C132.419 0.474882 128.323 3.69989 126.799 8.26189C125.075 13.422 127.048 19.0777 131.633 22.1184C133.138 23.1159 135.491 23.9544 136.859 23.9798C137.337 23.9887 137.503 23.8946 137.659 23.5274C137.769 23.2692 137.787 17.6948 137.679 17.3087C137.637 17.1577 137.522 16.9982 137.367 16.8737C137 16.5799 136.773 16.1208 136.775 15.6774C136.776 15.4781 136.822 15.1895 136.877 15.036C136.933 14.8826 136.978 14.6961 136.978 14.6215C136.977 14.3642 136.737 14.0808 136.356 13.8892C135.015 13.215 134.12 11.9555 133.937 10.4846L133.891 10.1179H138.26H142.629L142.59 10.5316C142.543 11.0341 142.31 11.7252 142.023 12.2101C141.715 12.7309 140.933 13.4879 140.434 13.7473C139.553 14.2061 139.458 14.3726 139.677 15.08C139.77 15.3799 139.798 15.595 139.772 15.8147C139.732 16.1524 139.496 16.6085 139.265 16.7931C139.186 16.857 139.056 16.9921 138.977 17.0933L138.834 17.2773V20.4166C138.834 23.4414 138.839 23.5619 138.96 23.7154C139.178 23.9919 139.412 24.0476 140.006 23.9648C143.953 23.4148 147.424 20.8715 149.17 17.2498C150.56 14.3684 150.732 11.0471 149.65 7.98162C149.369 7.1845 148.643 5.80179 148.13 5.08439C147.644 4.40524 146.536 3.22685 145.89 2.70196C143.492 0.754001 140.293 -0.228175 137.234 0.044949ZM140.094 1.64186C143.157 2.14921 145.923 4.10138 147.525 6.88491C149.223 9.83775 149.322 13.6315 147.781 16.718C146.43 19.424 143.973 21.4562 141.143 22.2077C140.806 22.2972 140.48 22.3847 140.418 22.4022C140.313 22.432 140.306 22.2936 140.306 20.1252V17.8164L140.568 17.5336C141.041 17.0219 141.307 16.2089 141.249 15.4475L141.214 14.9922L141.449 14.8559C142.546 14.2165 143.57 12.7951 143.934 11.4058C144.143 10.6097 144.177 9.3811 143.999 9.05084C143.774 8.63155 144.058 8.6512 138.228 8.6512H132.944L132.704 8.86967L132.465 9.08815L132.467 10.0335C132.469 11.119 132.579 11.6264 133.007 12.5092C133.432 13.3853 134.273 14.3461 135.019 14.8074L135.324 14.9962L135.286 15.3335C135.2 16.0928 135.508 17.0526 136.012 17.5975L136.274 17.8802V20.1512V22.4222L136.066 22.3829C135.951 22.3614 135.616 22.2749 135.32 22.1908C133.61 21.7044 132.115 20.8279 130.826 19.5564C129.136 17.8906 128.097 15.8377 127.756 13.4977C127.635 12.661 127.663 11.1122 127.816 10.244C128.734 5.03044 133.434 1.25414 138.706 1.49289C139.076 1.50966 139.7 1.57669 140.094 1.64186ZM137.97 3.25401C137.688 3.38155 137.548 3.56922 137.507 3.87264C137.379 4.81993 138.724 5.11384 139.016 4.20239C139.092 3.96325 139.089 3.90879 138.984 3.69823C138.773 3.2748 138.341 3.08585 137.97 3.25401ZM3.51579 5.14796C2.63638 5.27684 1.85989 5.70932 1.15202 6.46448C0.362735 7.30649 0.0640084 8.16878 0.0640084 9.60506V10.373H1.31217H2.56034V9.56412C2.56034 8.61766 2.64649 8.36462 3.10601 7.96166C4.14391 7.05148 5.75852 7.80619 5.76037 9.20248C5.76089 9.56552 5.55023 10.2129 5.30687 10.5962C4.94247 11.17 4.31116 11.8579 2.92166 13.1951C0.406711 15.6156 0.00377639 16.2929 0.00108803 18.105L0 18.8543H4.00052H8.00105V17.7072V16.5601L5.52072 16.5434L3.0404 16.5267L4.90516 14.6774C6.87239 12.7264 7.14731 12.3918 7.68447 11.2942C8.03498 10.5781 8.19308 9.91607 8.19308 9.16454C8.19308 8.00018 7.84532 7.16059 7.01826 6.32795C6.05116 5.35432 4.85568 4.95155 3.51579 5.14796ZM19.4416 5.17711C17.7194 5.50112 16.3872 6.71624 15.7237 8.56823C15.3707 9.55321 15.2667 10.3269 15.2667 11.9672C15.2667 13.2752 15.2853 13.5574 15.4129 14.1864C15.893 16.5522 17.0139 18.0049 18.8505 18.6411C19.3204 18.8039 19.4389 18.8183 20.2907 18.8171C21.1259 18.8157 21.2709 18.7984 21.7392 18.6433C22.0254 18.5485 22.4719 18.3327 22.7314 18.1636C23.2697 17.8128 23.9965 17.0646 24.3179 16.5302C25.3386 14.8329 25.6456 11.626 25.0228 9.16595C24.593 7.46815 23.692 6.27075 22.3284 5.58497C21.496 5.16633 20.3552 5.00518 19.4416 5.17711ZM32.5163 12.031V18.9181H33.7324H34.9486V13.2751V7.63216L37.941 7.61558L40.9334 7.599L40.9508 6.37144L40.9681 5.14388H36.7422H32.5163V12.031ZM68.66 5.1905C68.6385 5.22557 64.725 17.7853 64.4174 18.8065C64.3862 18.9102 64.4756 18.9181 65.6843 18.918L66.9848 18.9179L67.1009 18.5194C67.1648 18.3003 67.3635 17.6403 67.5426 17.0528L67.8682 15.9847H70.1183H72.3683L72.5042 16.4151C72.5791 16.6519 72.7876 17.3119 72.9677 17.8818L73.2951 18.9181H74.5725C75.2751 18.9181 75.8498 18.9109 75.8497 18.9021C75.8496 18.8933 74.8903 15.8013 73.7182 12.031L71.5869 5.17577L70.1385 5.15861C69.3418 5.14924 68.6765 5.16358 68.66 5.1905ZM81.8466 5.18514C81.8225 5.20924 81.8027 8.30895 81.8027 12.0735V18.9181H83.0505H84.2981L84.3146 14.8159L84.3311 10.7137L86.1268 14.8L87.9225 18.8862L89.2646 18.9033L90.6067 18.9205L92.3909 14.8859C93.3721 12.6668 94.1996 10.8239 94.2297 10.7907C94.26 10.7571 94.2844 12.5555 94.2844 14.8241V18.9181H95.5005H96.7167V12.031V5.14388L95.3565 5.14408L93.9963 5.1442L91.6641 10.4405C90.3813 13.3534 89.3156 15.7466 89.2957 15.7587C89.276 15.7707 88.2025 13.3945 86.9105 10.4781L84.5613 5.17577L83.226 5.15861C82.4915 5.14917 81.8708 5.1611 81.8466 5.18514ZM103.95 12.0297V18.9181H105.165H106.381L106.398 14.8005L106.414 10.6831L108.217 14.7846L110.021 18.8862L111.357 18.9033L112.694 18.9205L112.793 18.712C112.847 18.5974 113.666 16.7531 114.613 14.6136L116.335 10.7237L116.352 14.8209L116.368 18.9181H117.584H118.8V12.0297V5.14133L117.441 5.15855L116.082 5.17577L113.744 10.4812C112.458 13.3991 111.387 15.7666 111.363 15.7422C111.339 15.7177 110.271 13.3303 108.99 10.4367L106.66 5.17577L105.305 5.15855L103.95 5.14133V12.0297ZM48.4544 12.0602V18.9181H49.6705H50.8867V16.1206V13.3231L51.1267 13.2835C51.2588 13.2618 52.1744 13.2437 53.1615 13.2433C54.5483 13.2428 55.0431 13.2207 55.3378 13.1464C56.7634 12.7869 57.9463 11.5835 58.2834 10.1498C58.4372 9.49576 58.385 8.51549 58.1629 7.88743C57.7698 6.77561 56.8058 5.80995 55.6696 5.38971C55.2747 5.24368 55.2418 5.24221 51.8628 5.22238L48.4544 5.20242V12.0602ZM136.178 5.99858C135.878 6.13026 135.746 6.3217 135.712 6.67313C135.683 6.97706 135.694 7.0041 135.938 7.2477C136.149 7.45807 136.239 7.50328 136.442 7.50309C137.305 7.50226 137.591 6.37457 136.821 6.01026C136.564 5.88897 136.432 5.8866 136.178 5.99858ZM139.757 5.99674C138.98 6.34575 139.218 7.50335 140.067 7.50335C140.371 7.50335 140.705 7.26517 140.799 6.98069C141.009 6.34612 140.355 5.72827 139.757 5.99674ZM21.1548 7.77373C21.5587 7.98155 21.986 8.34676 22.176 8.6466C22.6102 9.33181 22.8502 10.5141 22.8502 11.9672C22.8502 13.3752 22.6101 14.6079 22.2101 15.2526C21.9845 15.6164 21.4069 16.0924 21.0106 16.2415C20.5187 16.4264 19.8212 16.3967 19.364 16.1714C18.9261 15.9555 18.4269 15.4489 18.2186 15.0088C17.5515 13.5995 17.5009 10.8812 18.1119 9.27384C18.4024 8.5095 18.9634 7.90044 19.6094 7.64791C19.953 7.51368 20.7801 7.58102 21.1548 7.77373ZM54.8056 7.69759C55.162 7.79618 55.5638 8.13435 55.7478 8.49069C55.9526 8.88721 55.972 9.51578 55.79 9.86281C55.6277 10.1723 55.3187 10.4862 55.0152 10.6496C54.769 10.7822 54.6856 10.7875 52.8389 10.7875H50.9187L50.9016 9.20918L50.8844 7.63089L52.7258 7.63127C53.7968 7.63146 54.6669 7.6592 54.8056 7.69759ZM70.855 11.1309C71.2435 12.3687 71.5614 13.4076 71.5614 13.4395C71.5614 13.4728 70.9456 13.4977 70.1212 13.4977C69.1224 13.4977 68.681 13.4763 68.681 13.428C68.681 13.3896 68.8947 12.6794 69.1559 11.8497C69.417 11.02 69.7363 10.0015 69.8652 9.58638C69.9942 9.1713 70.1107 8.8427 70.1241 8.85609C70.1377 8.86948 70.4665 9.89317 70.855 11.1309Z" fill="#2B3F6C"/>
</svg>
